<?xml version="1.0" encoding="UTF-8"?> <svg xmlns="http://www.w3.org/2000/svg" xmlns:xlink="http://www.w3.org/1999/xlink" width="1400" zoomAndPan="magnify" viewBox="0 0 1050 781.499972" height="1042" preserveAspectRatio="xMidYMid meet" version="1.0"><defs><clipPath id="89ac206a2c"><path d="M 3.28125 117.839844 L 359.789062 117.839844 L 359.789062 496 L 3.28125 496 Z M 3.28125 117.839844 " clip-rule="nonzero"></path></clipPath><clipPath id="0ac48ab344"><path d="M 102.28125 117.839844 L 181.789062 435.363281 L 261.296875 117.839844 L 359.785156 117.839844 L 359.785156 495.890625 L 298.242188 495.890625 L 298.242188 198.378906 L 224.890625 495.890625 L 138.191406 495.890625 L 64.84375 198.378906 L 64.84375 495.890625 L 3.28125 495.890625 L 3.28125 117.839844 Z M 102.28125 117.839844 " clip-rule="nonzero"></path></clipPath><clipPath id="6cbedee085"><path d="M 7 565.0625 L 85 565.0625 L 85 647 L 7 647 Z M 7 565.0625 " clip-rule="nonzero"></path></clipPath><clipPath id="cf5dd09f2b"><path d="M 73.527344 600.457031 C 73.527344 600.457031 74.769531 575.15625 48.363281 575.15625 C 34.253906 575.15625 20.707031 581.796875 18.5 600.457031 Z M 48.363281 565.464844 C 89.976562 565.464844 84.730469 610.121094 84.730469 610.121094 L 18.367188 610.121094 C 20.027344 630.171875 33.851562 637.226562 48.363281 637.226562 C 74.074219 637.226562 73.390625 620.640625 73.390625 620.640625 L 84.730469 620.640625 C 84.730469 620.640625 84.730469 646.902344 48.363281 646.902344 C 25.003906 646.902344 7.027344 631.976562 7.027344 606.117188 C 7.027344 580.257812 25.003906 565.464844 48.363281 565.464844 " clip-rule="nonzero"></path></clipPath><clipPath id="d7eba657ef"><path d="M 97.632812 565.0625 L 174.636719 565.0625 L 174.636719 645.296875 L 97.632812 645.296875 Z M 97.632812 565.0625 " clip-rule="nonzero"></path></clipPath><clipPath id="66be370e57"><path d="M 97.996094 567.125 L 108.222656 567.125 L 108.222656 582.746094 C 108.355469 582.746094 129.933594 565.332031 149.96875 565.332031 C 168.910156 565.332031 174.304688 575.011719 174.304688 594.367188 L 174.304688 645.109375 L 163.929688 645.109375 L 163.929688 594.367188 C 163.929688 579.84375 160.328125 575.691406 146.648438 575.691406 C 130.46875 575.691406 108.207031 593.535156 108.207031 593.535156 L 108.207031 645.109375 L 97.996094 645.109375 Z M 97.996094 567.125 " clip-rule="nonzero"></path></clipPath><clipPath id="1af5684ecd"><path d="M 183 565.0625 L 262 565.0625 L 262 647 L 183 647 Z M 183 565.0625 " clip-rule="nonzero"></path></clipPath><clipPath id="ea0544c103"><path d="M 249.664062 600.457031 C 249.664062 600.457031 250.90625 575.15625 224.5 575.15625 C 210.390625 575.15625 196.84375 581.796875 194.636719 600.457031 Z M 224.5 565.480469 C 266.113281 565.480469 260.867188 610.132812 260.867188 610.132812 L 194.503906 610.132812 C 196.164062 630.183594 209.988281 637.238281 224.5 637.238281 C 250.210938 637.238281 249.53125 620.652344 249.53125 620.652344 L 260.867188 620.652344 C 260.867188 620.652344 260.867188 646.917969 224.5 646.917969 C 201.128906 646.917969 183.164062 631.976562 183.164062 606.132812 C 183.164062 580.285156 201.140625 565.480469 224.5 565.480469 " clip-rule="nonzero"></path></clipPath><clipPath id="166ddb995d"><path d="M 274 565.0625 L 344 565.0625 L 344 645.296875 L 274 645.296875 Z M 274 565.0625 " clip-rule="nonzero"></path></clipPath><clipPath id="ae4387e564"><path d="M 284.371094 567.125 L 284.371094 582.746094 C 284.503906 582.746094 299.578125 565.332031 320.042969 565.332031 C 339.128906 565.332031 343.960938 577.367188 343.960938 590.632812 L 333.734375 590.632812 C 333.734375 581.917969 331.246094 575.691406 318.25 575.691406 C 301.101562 575.691406 284.371094 593.535156 284.371094 593.535156 L 284.371094 645.109375 L 274.144531 645.109375 L 274.144531 567.125 Z M 284.371094 567.125 " clip-rule="nonzero"></path></clipPath><clipPath id="9ef3e533ec"><path d="M 347.097656 567 L 424.5625 567 L 424.5625 645.296875 L 347.097656 645.296875 Z M 347.097656 567 " clip-rule="nonzero"></path></clipPath><clipPath id="8107461af8"><path d="M 378.242188 603.359375 L 350.734375 567.125 L 364.414062 567.125 L 385.84375 596.292969 L 407.140625 567.125 L 420.835938 567.125 L 393.3125 603.359375 L 424.289062 645.109375 L 410.59375 645.109375 L 385.84375 610.546875 L 360.960938 645.109375 L 347.269531 645.109375 Z M 378.242188 603.359375 " clip-rule="nonzero"></path></clipPath><clipPath id="426fda8712"><path d="M 433 542.007812 L 458.226562 542.007812 L 458.226562 645.296875 L 433 645.296875 Z M 433 542.007812 " clip-rule="nonzero"></path></clipPath><clipPath id="4321451390"><path d="M 433.816406 561.183594 L 446.960938 542.242188 L 458.019531 542.242188 L 442.664062 561.183594 Z M 433.121094 567.125 L 443.347656 567.125 L 443.347656 645.109375 L 433.121094 645.109375 Z M 433.121094 567.125 " clip-rule="nonzero"></path></clipPath><clipPath id="8625cbaf1d"><path d="M 469.292969 565.0625 L 548.605469 565.0625 L 548.605469 647 L 469.292969 647 Z M 469.292969 565.0625 " clip-rule="nonzero"></path></clipPath><clipPath id="5fd3f9abe4"><path d="M 503.21875 637.226562 C 520.914062 637.226562 532.121094 629.339844 538.0625 623.398438 L 538.0625 611.378906 C 526.578125 610.683594 499.621094 609.023438 499.484375 609.023438 C 490.773438 609.023438 480.828125 610.683594 480.828125 621.605469 C 480.828125 631.695312 489.539062 637.226562 503.21875 637.226562 M 469.625 621.605469 C 469.625 604.457031 483.167969 599.761719 496.582031 599.761719 L 499.484375 599.894531 C 499.621094 599.894531 526.578125 601.554688 538.0625 602.382812 L 538.0625 594.914062 C 538.0625 589.386719 535.988281 575.011719 514.972656 575.011719 C 488.980469 575.011719 491.335938 593.535156 491.335938 593.535156 L 479.996094 593.535156 C 479.996094 593.535156 476.261719 565.332031 514.972656 565.332031 C 544.421875 565.332031 548.289062 584.96875 548.289062 594.925781 L 548.289062 645.109375 L 538.0625 645.109375 L 538.0625 633.222656 C 532.121094 639.03125 520.914062 646.917969 503.21875 646.917969 C 482.207031 646.917969 469.625 637.238281 469.625 621.617188 " clip-rule="nonzero"></path></clipPath><clipPath id="3b75cd8198"><path d="M 505.398438 101.132812 L 588 101.132812 L 588 176.660156 L 505.398438 176.660156 Z M 505.398438 101.132812 " clip-rule="nonzero"></path></clipPath><clipPath id="1db47271b2"><path d="M 530.121094 101.132812 L 587.996094 101.132812 L 551.175781 176.371094 L 505.398438 176.371094 Z M 530.121094 101.132812 " clip-rule="nonzero"></path></clipPath><clipPath id="a1cf55cc01"><path d="M 707.1875 111.160156 L 779.367188 111.160156 L 779.367188 496 L 707.1875 496 Z M 707.1875 111.160156 " clip-rule="nonzero"></path></clipPath><clipPath id="875541f0fa"><path d="M 713.1875 206.582031 L 773.210938 206.582031 L 773.210938 495.890625 L 713.1875 495.890625 Z M 743.453125 111.171875 C 764.480469 111.171875 779.367188 120.914062 779.367188 137.847656 C 779.367188 155.796875 764.496094 166.0625 743.453125 166.0625 C 722.410156 166.0625 707.539062 155.796875 707.539062 137.847656 C 707.539062 120.914062 722.425781 111.171875 743.453125 111.171875 " clip-rule="nonzero"></path></clipPath><clipPath id="013bfa54b1"><path d="M 377.023438 191 L 695 191 L 695 504 L 377.023438 504 Z M 377.023438 191 " clip-rule="nonzero"></path></clipPath><clipPath id="5e413f715a"><path d="M 572.738281 426.78125 C 552.753906 439.941406 524.859375 452.5625 491.714844 452.5625 C 465.9375 452.5625 442.792969 440.460938 442.792969 406.261719 C 442.792969 384.699219 455.949219 372.636719 478.035156 372.636719 L 572.738281 384.671875 Z M 694.652344 328.921875 L 633.761719 328.921875 L 633.761719 306.835938 C 633.761719 272.113281 630.601562 191.09375 528.015625 191.09375 C 405.96875 191.09375 417.535156 301.574219 417.535156 301.574219 L 480.152344 301.574219 C 480.152344 301.574219 473.832031 241.074219 526.972656 241.074219 C 576.953125 241.074219 572.214844 286.316406 572.738281 306.835938 L 572.738281 328.933594 C 533.277344 326.3125 469.644531 325.480469 469.109375 325.480469 C 467.007812 325.480469 464.355469 325.292969 461.734375 325.292969 C 429.636719 325.292969 377.03125 337.875 377.03125 406.277344 C 377.03125 470.980469 422.808594 503.078125 485.410156 503.078125 C 522.234375 503.078125 552.230469 489.398438 572.738281 475.71875 L 572.738281 495.703125 L 633.761719 495.703125 L 633.761719 389.8125 L 694.652344 389.8125 Z M 694.652344 328.921875 " clip-rule="nonzero"></path></clipPath><clipPath id="76df83303b"><path d="M 810 198.886719 L 1049 198.886719 L 1049 503 L 810 503 Z M 810 198.886719 " clip-rule="nonzero"></path></clipPath><clipPath id="13115e559e"><path d="M 1048.074219 412.78125 C 1048.074219 466.125 1009.605469 503.066406 930.605469 503.066406 C 807.5 503.066406 810.058594 391.246094 810.058594 391.246094 L 874.695312 391.246094 C 874.695312 391.246094 868.539062 457.929688 930.605469 457.929688 C 966.519531 457.929688 982.417969 437.921875 982.417969 412.796875 C 982.417969 351.757812 815.199219 382.53125 815.199219 282.503906 C 815.199219 237.863281 853.144531 198.886719 930.605469 198.886719 C 1054.230469 198.886719 1042.949219 308.148438 1042.949219 308.148438 L 978.832031 308.148438 C 978.832031 308.148438 992.164062 244.542969 930.617188 244.542969 C 895.226562 244.542969 881.375 260.445312 881.375 282.503906 C 881.375 339.445312 1048.085938 316.863281 1048.085938 412.796875 " clip-rule="nonzero"></path></clipPath><clipPath id="32ebf9cab6"><path d="M 584.070312 565.226562 L 665 565.226562 L 665 673.621094 L 584.070312 673.621094 Z M 584.070312 565.226562 " clip-rule="nonzero"></path></clipPath><clipPath id="83a6a74e3a"><path d="M 595.988281 600.585938 C 595.988281 617.183594 607.046875 626.300781 624.058594 626.300781 C 638.996094 626.300781 652.675781 616.902344 652.675781 600.585938 C 652.675781 584.417969 639.398438 575.007812 624.058594 575.007812 C 607.609375 575.007812 595.988281 583.988281 595.988281 600.585938 M 592.671875 640.820312 L 603.875 640.820312 C 603.875 640.820312 599.859375 663.496094 629.039062 663.496094 C 662.917969 663.496094 652.675781 621.746094 652.675781 621.746094 C 652.675781 621.746094 644.242188 635.988281 623.230469 635.988281 C 600.273438 635.976562 584.519531 621.332031 584.519531 600.585938 C 584.519531 578.460938 600.703125 565.328125 623.230469 565.328125 C 644.242188 565.328125 652.675781 579.289062 652.675781 579.289062 L 652.675781 567.136719 L 663.050781 567.136719 L 663.050781 621.746094 C 663.050781 621.746094 675.914062 673.175781 629.039062 673.175781 C 587.421875 673.175781 592.683594 640.820312 592.683594 640.820312 " clip-rule="nonzero"></path></clipPath><clipPath id="fb3fe71876"><path d="M 673.167969 565.226562 L 752.617188 565.226562 L 752.617188 646.949219 L 673.167969 646.949219 Z M 673.167969 565.226562 " clip-rule="nonzero"></path></clipPath><clipPath id="a6941ea424"><path d="M 707.15625 637.222656 C 724.851562 637.222656 736.054688 629.335938 741.996094 623.394531 L 741.996094 611.375 C 730.511719 610.679688 703.554688 609.019531 703.421875 609.019531 C 694.707031 609.019531 684.761719 610.679688 684.761719 621.601562 C 684.761719 631.691406 693.476562 637.222656 707.15625 637.222656 M 673.558594 621.601562 C 673.558594 604.453125 687.105469 599.753906 700.515625 599.753906 L 703.421875 599.890625 C 703.554688 599.890625 730.511719 601.550781 741.996094 602.378906 L 741.996094 594.921875 C 741.996094 589.394531 739.921875 575.019531 718.90625 575.019531 C 692.914062 575.019531 695.269531 593.546875 695.269531 593.546875 L 683.917969 593.546875 C 683.917969 593.546875 680.183594 565.34375 718.894531 565.34375 C 748.339844 565.34375 752.210938 584.976562 752.210938 594.9375 L 752.210938 645.105469 L 741.984375 645.105469 L 741.984375 633.21875 C 736.039062 639.027344 724.835938 646.914062 707.140625 646.914062 C 686.125 646.914062 673.542969 637.234375 673.542969 621.613281 " clip-rule="nonzero"></path></clipPath><clipPath id="f9d331b0cb"><path d="M 765.21875 541.277344 L 775.445312 541.277344 L 775.445312 645.105469 L 765.21875 645.105469 Z M 765.21875 541.277344 " clip-rule="nonzero"></path></clipPath><clipPath id="105ddf52d3"><path d="M 787 565.226562 L 865 565.226562 L 865 646.949219 L 787 646.949219 Z M 787 565.226562 " clip-rule="nonzero"></path></clipPath><clipPath id="8942bbddc1"><path d="M 853.5625 600.453125 C 853.5625 600.453125 854.808594 575.152344 828.398438 575.152344 C 814.289062 575.152344 800.746094 581.792969 798.535156 600.453125 Z M 828.398438 565.476562 C 870.011719 565.476562 864.765625 610.128906 864.765625 610.128906 L 798.402344 610.128906 C 800.0625 630.179688 813.890625 637.234375 828.398438 637.234375 C 854.113281 637.234375 853.429688 620.648438 853.429688 620.648438 L 864.765625 620.648438 C 864.765625 620.648438 864.765625 646.914062 828.398438 646.914062 C 805.027344 646.914062 787.066406 631.972656 787.066406 606.128906 C 787.066406 580.28125 805.042969 565.476562 828.398438 565.476562 " clip-rule="nonzero"></path></clipPath><clipPath id="d8aed86c27"><path d="M 875.203125 565.226562 L 956 565.226562 L 956 673.621094 L 875.203125 673.621094 Z M 875.203125 565.226562 " clip-rule="nonzero"></path></clipPath><clipPath id="1ff203bd17"><path d="M 886.746094 600.585938 C 886.746094 617.183594 897.816406 626.300781 914.8125 626.300781 C 929.753906 626.300781 943.433594 616.902344 943.433594 600.585938 C 943.433594 584.417969 930.152344 575.007812 914.8125 575.007812 C 898.363281 575.007812 886.746094 583.988281 886.746094 600.585938 M 883.425781 640.820312 L 894.628906 640.820312 C 894.628906 640.820312 890.625 663.496094 919.792969 663.496094 C 953.671875 663.496094 943.433594 621.746094 943.433594 621.746094 C 943.433594 621.746094 935 635.988281 913.984375 635.988281 C 891.027344 635.988281 875.273438 621.332031 875.273438 600.597656 C 875.273438 578.472656 891.457031 565.34375 913.984375 565.34375 C 935 565.34375 943.433594 579.304688 943.433594 579.304688 L 943.433594 567.136719 L 953.804688 567.136719 L 953.804688 621.746094 C 953.804688 621.746094 966.667969 673.175781 919.792969 673.175781 C 878.179688 673.175781 883.425781 640.820312 883.425781 640.820312 " clip-rule="nonzero"></path></clipPath><clipPath id="ebbbefdfdf"><path d="M 964 565.226562 L 1043 565.226562 L 1043 646.949219 L 964 646.949219 Z M 964 565.226562 " clip-rule="nonzero"></path></clipPath><clipPath id="939604b267"><path d="M 997.898438 637.222656 C 1015.59375 637.222656 1026.796875 629.335938 1032.738281 623.394531 L 1032.738281 611.375 C 1021.265625 610.679688 994.296875 609.019531 994.164062 609.019531 C 985.449219 609.019531 975.503906 610.679688 975.503906 621.601562 C 975.503906 631.691406 984.21875 637.222656 997.898438 637.222656 M 964.300781 621.601562 C 964.300781 604.453125 977.84375 599.753906 991.257812 599.753906 L 994.164062 599.890625 C 994.296875 599.890625 1021.253906 601.550781 1032.738281 602.378906 L 1032.738281 594.921875 C 1032.738281 589.394531 1030.664062 575.019531 1009.648438 575.019531 C 983.65625 575.019531 986.011719 593.546875 986.011719 593.546875 L 974.671875 593.546875 C 974.671875 593.546875 970.9375 565.34375 1009.648438 565.34375 C 1039.097656 565.34375 1042.964844 584.976562 1042.964844 594.9375 L 1042.964844 645.105469 L 1032.738281 645.105469 L 1032.738281 633.21875 C 1026.796875 639.027344 1015.59375 646.914062 997.898438 646.914062 C 976.882812 646.914062 964.300781 637.234375 964.300781 621.613281 " clip-rule="nonzero"></path></clipPath></defs><g clip-path="url(#89ac206a2c)"><g clip-path="url(#0ac48ab344)"><path fill="#1c203f" d="M 3.28125 117.839844 L 359.789062 117.839844 L 359.789062 495.707031 L 3.28125 495.707031 Z M 3.28125 117.839844 " fill-opacity="1" fill-rule="nonzero"></path></g></g><g clip-path="url(#6cbedee085)"><g clip-path="url(#cf5dd09f2b)"><path fill="#1c203f" d="M 0.335938 535.550781 L 555.058594 535.550781 L 555.058594 653.597656 L 0.335938 653.597656 Z M 0.335938 535.550781 " fill-opacity="1" fill-rule="nonzero"></path></g></g><g clip-path="url(#d7eba657ef)"><g clip-path="url(#66be370e57)"><path fill="#1c203f" d="M 0.335938 535.550781 L 555.058594 535.550781 L 555.058594 653.597656 L 0.335938 653.597656 Z M 0.335938 535.550781 " fill-opacity="1" fill-rule="nonzero"></path></g></g><g clip-path="url(#1af5684ecd)"><g clip-path="url(#ea0544c103)"><path fill="#1c203f" d="M 0.335938 535.550781 L 555.058594 535.550781 L 555.058594 653.597656 L 0.335938 653.597656 Z M 0.335938 535.550781 " fill-opacity="1" fill-rule="nonzero"></path></g></g><g clip-path="url(#166ddb995d)"><g clip-path="url(#ae4387e564)"><path fill="#1c203f" d="M 0.335938 535.550781 L 555.058594 535.550781 L 555.058594 653.597656 L 0.335938 653.597656 Z M 0.335938 535.550781 " fill-opacity="1" fill-rule="nonzero"></path></g></g><g clip-path="url(#9ef3e533ec)"><g clip-path="url(#8107461af8)"><path fill="#1c203f" d="M 0.335938 535.550781 L 555.058594 535.550781 L 555.058594 653.597656 L 0.335938 653.597656 Z M 0.335938 535.550781 " fill-opacity="1" fill-rule="nonzero"></path></g></g><g clip-path="url(#426fda8712)"><g clip-path="url(#4321451390)"><path fill="#1c203f" d="M 0.335938 535.550781 L 555.058594 535.550781 L 555.058594 653.597656 L 0.335938 653.597656 Z M 0.335938 535.550781 " fill-opacity="1" fill-rule="nonzero"></path></g></g><g clip-path="url(#8625cbaf1d)"><g clip-path="url(#5fd3f9abe4)"><path fill="#1c203f" d="M 0.335938 535.550781 L 555.058594 535.550781 L 555.058594 653.597656 L 0.335938 653.597656 Z M 0.335938 535.550781 " fill-opacity="1" fill-rule="nonzero"></path></g></g><g clip-path="url(#3b75cd8198)"><g clip-path="url(#1db47271b2)"><path fill="#d0674e" d="M 505.398438 101.132812 L 587.976562 101.132812 L 587.976562 176.367188 L 505.398438 176.367188 Z M 505.398438 101.132812 " fill-opacity="1" fill-rule="nonzero"></path></g></g><g clip-path="url(#a1cf55cc01)"><g clip-path="url(#875541f0fa)"><path fill="#1c203f" d="M 370.339844 104.476562 L 786.050781 104.476562 L 786.050781 509.496094 L 370.339844 509.496094 Z M 370.339844 104.476562 " fill-opacity="1" fill-rule="nonzero"></path></g></g><g clip-path="url(#013bfa54b1)"><g clip-path="url(#5e413f715a)"><path fill="#d0674e" d="M 370.339844 104.476562 L 786.050781 104.476562 L 786.050781 509.496094 L 370.339844 509.496094 Z M 370.339844 104.476562 " fill-opacity="1" fill-rule="nonzero"></path></g></g><g clip-path="url(#76df83303b)"><g clip-path="url(#13115e559e)"><path fill="#1c203f" d="M 810.058594 198.886719 L 1048.074219 198.886719 L 1048.074219 502.914062 L 810.058594 502.914062 Z M 810.058594 198.886719 " fill-opacity="1" fill-rule="nonzero"></path></g></g><g clip-path="url(#32ebf9cab6)"><g clip-path="url(#83a6a74e3a)"><path fill="#d0674e" d="M 577.824219 534.582031 L 1049.425781 534.582031 L 1049.425781 679.867188 L 577.824219 679.867188 Z M 577.824219 534.582031 " fill-opacity="1" fill-rule="nonzero"></path></g></g><g clip-path="url(#fb3fe71876)"><g clip-path="url(#a6941ea424)"><path fill="#d0674e" d="M 577.824219 534.582031 L 1049.425781 534.582031 L 1049.425781 679.867188 L 577.824219 679.867188 Z M 577.824219 534.582031 " fill-opacity="1" fill-rule="nonzero"></path></g></g><g clip-path="url(#f9d331b0cb)"><path fill="#d0674e" d="M 577.824219 534.582031 L 1049.425781 534.582031 L 1049.425781 679.867188 L 577.824219 679.867188 Z M 577.824219 534.582031 " fill-opacity="1" fill-rule="nonzero"></path></g><g clip-path="url(#105ddf52d3)"><g clip-path="url(#8942bbddc1)"><path fill="#d0674e" d="M 577.824219 534.582031 L 1049.425781 534.582031 L 1049.425781 679.867188 L 577.824219 679.867188 Z M 577.824219 534.582031 " fill-opacity="1" fill-rule="nonzero"></path></g></g><g clip-path="url(#d8aed86c27)"><g clip-path="url(#1ff203bd17)"><path fill="#d0674e" d="M 577.824219 534.582031 L 1049.425781 534.582031 L 1049.425781 679.867188 L 577.824219 679.867188 Z M 577.824219 534.582031 " fill-opacity="1" fill-rule="nonzero"></path></g></g><g clip-path="url(#ebbbefdfdf)"><g clip-path="url(#939604b267)"><path fill="#d0674e" d="M 577.824219 534.582031 L 1049.425781 534.582031 L 1049.425781 679.867188 L 577.824219 679.867188 Z M 577.824219 534.582031 " fill-opacity="1" fill-rule="nonzero"></path></g></g></svg> 